<?xml version="1.0" encoding="UTF-8"?>
<svg width="18px" height="21px" viewBox="0 0 18 21" version="1.1" xmlns="http://www.w3.org/2000/svg" xmlns:xlink="http://www.w3.org/1999/xlink">
    <!-- Generator: Sketch 55.2 (78181) - https://sketchapp.com -->
    <title>Shape</title>
    <desc>Created with Sketch.</desc>
    <g id="Page-1" stroke="none" stroke-width="1" fill="none" fill-rule="evenodd">
        <g id="icon-live_help" transform="translate(-3.000000, -2.000000)" fill="#2C3E50" fill-rule="nonzero">
            <path d="M19,2 L5,2 C3.89,2 3,2.9 3,4 L3,18 C3,19.1 3.89,20 5,20 L9,20 L12,23 L15,20 L19,20 C20.1,20 21,19.1 21,18 L21,4 C21,2.9 20.1,2 19,2 Z M19,18 L14.17,18 L13.58,18.59 L12,20.17 L10.41,18.58 L9.83,18 L5,18 L5,4 L19,4 L19,18 Z M11,15 L13,15 L13,17 L11,17 L11,15 Z M12,7 C13.1,7 14,7.9 14,9 C14,11 11,10.75 11,14 L13,14 C13,11.75 16,11.5 16,9 C16,6.79 14.21,5 12,5 C9.79,5 8,6.79 8,9 L10,9 C10,7.9 10.9,7 12,7 Z" id="Shape"></path>
        </g>
    </g>
</svg>
