<svg id="Layer_1" data-name="Layer 1" xmlns="http://www.w3.org/2000/svg" viewBox="0 0 61.61 31.8"><defs><style>.cls-1{fill:#d6af0d;}.cls-2{fill:#fff;}</style></defs><title>new-old</title><rect class="cls-1" width="61.61" height="31.8"/><path class="cls-2" d="M10.36,8.89a.73.73,0,0,1,.21.06.68.68,0,0,1,.18.13,1.5,1.5,0,0,1,.2.22l7.54,9.61c0-.23,0-.46,0-.68s0-.43,0-.62V8.87h2.36V23.24H19.4a1.19,1.19,0,0,1-.53-.1,1.1,1.1,0,0,1-.41-.36L11,13.21c0,.22,0,.43.05.64s0,.39,0,.57v8.82H8.66V8.87h1.4Z"/><path class="cls-2" d="M32.74,8.87V11H26.37v4h5V17h-5V21.1h6.37v2.14H23.68V8.87Z"/><path class="cls-2" d="M33.73,8.87H36a1,1,0,0,1,.58.17.76.76,0,0,1,.32.44l2.44,8.59c.06.22.12.45.17.69s.09.52.14.79c.05-.27.11-.54.17-.79s.13-.47.21-.69l2.82-8.59a1,1,0,0,1,.31-.42.87.87,0,0,1,.57-.19h.79a1,1,0,0,1,.58.17.79.79,0,0,1,.31.44l2.81,8.59a12,12,0,0,1,.37,1.41l.15-.74c0-.24.1-.46.15-.67l2.45-8.59a.74.74,0,0,1,.3-.43.93.93,0,0,1,.58-.18h2.1L49.82,23.24H47.41l-3.14-9.82c0-.12-.08-.26-.12-.4s-.09-.31-.13-.47L43.9,13c0,.14-.09.28-.13.4L40.6,23.24H38.19Z"/></svg>