<svg id="Layer_1" data-name="Layer 1" xmlns="http://www.w3.org/2000/svg" viewBox="0 0 61.61 31.8"><defs><style>.cls-1{fill:#898989;}.cls-2{fill:#fff;}</style></defs><title>new-old</title><rect class="cls-1" width="61.61" height="31.8"/><path class="cls-2" d="M25.53,16.06A7.94,7.94,0,0,1,25,19a6.77,6.77,0,0,1-1.48,2.33,6.65,6.65,0,0,1-2.29,1.54,7.75,7.75,0,0,1-3,.55,7.74,7.74,0,0,1-3-.55A6.69,6.69,0,0,1,11.49,19a8.34,8.34,0,0,1,0-5.85,6.69,6.69,0,0,1,3.79-3.87,7.93,7.93,0,0,1,3-.55,7.75,7.75,0,0,1,3,.56,6.77,6.77,0,0,1,2.29,1.53A6.87,6.87,0,0,1,25,13.13,8,8,0,0,1,25.53,16.06Zm-2.74,0a6.6,6.6,0,0,0-.32-2.12,4.54,4.54,0,0,0-.9-1.6,3.78,3.78,0,0,0-1.42-1,4.77,4.77,0,0,0-1.9-.35,4.75,4.75,0,0,0-1.89.35,3.77,3.77,0,0,0-1.44,1,4.55,4.55,0,0,0-.91,1.6,6.6,6.6,0,0,0-.32,2.12A6.65,6.65,0,0,0,14,18.18a4.6,4.6,0,0,0,.91,1.59,4,4,0,0,0,1.44,1,4.93,4.93,0,0,0,1.89.34,5,5,0,0,0,1.9-.34,4,4,0,0,0,1.42-1,4.58,4.58,0,0,0,.9-1.59A6.65,6.65,0,0,0,22.79,16.06Z"/><path class="cls-2" d="M30.31,21h5.75v2.21H27.64V8.87h2.67Z"/><path class="cls-2" d="M50.67,16.06a7.79,7.79,0,0,1-.53,2.9,6.53,6.53,0,0,1-3.77,3.75,7.93,7.93,0,0,1-3,.53H37.91V8.87H43.4a8.13,8.13,0,0,1,3,.53,6.8,6.8,0,0,1,2.29,1.48,6.61,6.61,0,0,1,1.48,2.27A7.85,7.85,0,0,1,50.67,16.06Zm-2.73,0a6.6,6.6,0,0,0-.32-2.12,4.42,4.42,0,0,0-.91-1.59,3.78,3.78,0,0,0-1.42-1A4.75,4.75,0,0,0,43.4,11H40.6V21.11h2.8a4.93,4.93,0,0,0,1.89-.34,4,4,0,0,0,1.42-1,4.6,4.6,0,0,0,.91-1.59A6.65,6.65,0,0,0,47.94,16.06Z"/></svg>